{
	"asset":{
		"version":"2.0",
		"generator":"Houdini GLTF 2.0 Exporter 17.0 Alpha"
	},
	"accessors":[
		{
			"bufferView":0,
			"componentType":5123,
			"count":21834,
			"type":"SCALAR",
			"min":[0
			],
			"max":[21833
			]
		},
		{
			"bufferView":1,
			"componentType":5126,
			"count":21834,
			"type":"VEC3",
			"min":[-11.0945387,-22.4985657,-9.72359276
			],
			"max":[13.2043295,7.3245697,9.72359276
			]
		},
		{
			"bufferView":2,
			"componentType":5126,
			"count":21834,
			"type":"VEC3",
			"min":[-0.999898314,-0.999999642,-0.999866307
			],
			"max":[0.999834836,0.999954402,0.999866307
			]
		}
	],
	"buffers":[
		{
			"uri":"Head_01_data.bin",
			"byteLength":567684,
			"name":"main_buffer"
		}
	],
	"bufferViews":[
		{
			"buffer":0,
			"byteLength":43668,
			"target":34963
		},
		{
			"buffer":0,
			"byteOffset":43668,
			"byteLength":262008,
			"target":34962
		},
		{
			"buffer":0,
			"byteOffset":305676,
			"byteLength":262008,
			"target":34962
		}
	],
	"nodes":[
		{
			"children":[1
			],
			"name":"Root"
		},
		{
			"name":"Head",
			"mesh":0
		}
	],
	"meshes":[
		{
			"primitives":[
				{
					"attributes":{
						"NORMAL":2,
						"POSITION":1
					},
					"indices":0
				}
			]
		}
	],
	"scenes":[
		{
			"nodes":[0
			]
		}
	],
	"scene":0
}
