{
	"asset":{
		"version":"2.0",
		"generator":"Houdini GLTF 2.0 Exporter 17.0 Alpha"
	},
	"accessors":[
		{
			"bufferView":0,
			"componentType":5125,
			"count":72408,
			"type":"SCALAR",
			"min":[0
			],
			"max":[72407
			]
		},
		{
			"bufferView":1,
			"componentType":5126,
			"count":72408,
			"type":"VEC3",
			"min":[-8.16027355,6.63775826,-6.71654892
			],
			"max":[-3.1358254,16.1709023,6.34307432
			]
		},
		{
			"bufferView":2,
			"componentType":5126,
			"count":72408,
			"type":"VEC2",
			"min":[0,0.0118005872
			],
			"max":[0.999995112,1
			]
		},
		{
			"bufferView":3,
			"componentType":5125,
			"count":72408,
			"type":"SCALAR",
			"min":[0
			],
			"max":[0
			]
		},
		{
			"bufferView":4,
			"componentType":5126,
			"count":72408,
			"type":"SCALAR",
			"min":[0.552292824
			],
			"max":[0.552292824
			]
		},
		{
			"bufferView":5,
			"componentType":5125,
			"count":75054,
			"type":"SCALAR",
			"min":[0
			],
			"max":[75053
			]
		},
		{
			"bufferView":6,
			"componentType":5126,
			"count":75054,
			"type":"VEC3",
			"min":[-6.90395021,11.4421606,-3.7067368
			],
			"max":[1.52403152,18.6000175,3.41061974
			]
		},
		{
			"bufferView":7,
			"componentType":5126,
			"count":75054,
			"type":"VEC2",
			"min":[1,0.00472688675
			],
			"max":[1.99977207,1
			]
		},
		{
			"bufferView":8,
			"componentType":5125,
			"count":75054,
			"type":"SCALAR",
			"min":[0
			],
			"max":[0
			]
		},
		{
			"bufferView":9,
			"componentType":5126,
			"count":75054,
			"type":"SCALAR",
			"min":[0.583194733
			],
			"max":[0.583194733
			]
		},
		{
			"bufferView":10,
			"componentType":5125,
			"count":35496,
			"type":"SCALAR",
			"min":[0
			],
			"max":[35495
			]
		},
		{
			"bufferView":11,
			"componentType":5126,
			"count":35496,
			"type":"VEC3",
			"min":[-4.40117693,11.7714024,2.62956095
			],
			"max":[0.619760036,17.2606544,6.33105612
			]
		},
		{
			"bufferView":12,
			"componentType":5126,
			"count":35496,
			"type":"VEC2",
			"min":[2,0.00721520185
			],
			"max":[2.99998379,1
			]
		},
		{
			"bufferView":13,
			"componentType":5125,
			"count":35496,
			"type":"SCALAR",
			"min":[0
			],
			"max":[0
			]
		},
		{
			"bufferView":14,
			"componentType":5126,
			"count":35496,
			"type":"SCALAR",
			"min":[0.536441803
			],
			"max":[0.536441803
			]
		},
		{
			"bufferView":15,
			"componentType":5125,
			"count":32820,
			"type":"SCALAR",
			"min":[0
			],
			"max":[32819
			]
		},
		{
			"bufferView":16,
			"componentType":5126,
			"count":32820,
			"type":"VEC3",
			"min":[-4.15436172,11.999712,-6.57384634
			],
			"max":[0.453272969,17.2373924,-2.77479672
			]
		},
		{
			"bufferView":17,
			"componentType":5126,
			"count":32820,
			"type":"VEC2",
			"min":[3,0.00268596411
			],
			"max":[3.98080778,1
			]
		},
		{
			"bufferView":18,
			"componentType":5125,
			"count":32820,
			"type":"SCALAR",
			"min":[0
			],
			"max":[0
			]
		},
		{
			"bufferView":19,
			"componentType":5126,
			"count":32820,
			"type":"SCALAR",
			"min":[0.533673763
			],
			"max":[0.533673763
			]
		},
		{
			"bufferView":20,
			"componentType":5123,
			"count":17394,
			"type":"SCALAR",
			"min":[0
			],
			"max":[17393
			]
		},
		{
			"bufferView":21,
			"componentType":5126,
			"count":17394,
			"type":"VEC3",
			"min":[-4.19211197,8.78525829,3.74803758
			],
			"max":[-1.83635855,12.8330688,6.72457218
			]
		},
		{
			"bufferView":22,
			"componentType":5126,
			"count":17394,
			"type":"VEC2",
			"min":[4,0.00392949581
			],
			"max":[4.99969053,1
			]
		},
		{
			"bufferView":23,
			"componentType":5125,
			"count":17394,
			"type":"SCALAR",
			"min":[0
			],
			"max":[0
			]
		},
		{
			"bufferView":24,
			"componentType":5126,
			"count":17394,
			"type":"SCALAR",
			"min":[0.58692956
			],
			"max":[0.58692956
			]
		},
		{
			"bufferView":25,
			"componentType":5123,
			"count":24828,
			"type":"SCALAR",
			"min":[0
			],
			"max":[24827
			]
		},
		{
			"bufferView":26,
			"componentType":5126,
			"count":24828,
			"type":"VEC3",
			"min":[-3.81201935,8.85908127,-7.05238438
			],
			"max":[-1.72205043,12.5917444,-3.95441484
			]
		},
		{
			"bufferView":27,
			"componentType":5126,
			"count":24828,
			"type":"VEC2",
			"min":[5,0.00654244423
			],
			"max":[5.99987602,1
			]
		},
		{
			"bufferView":28,
			"componentType":5125,
			"count":24828,
			"type":"SCALAR",
			"min":[0
			],
			"max":[0
			]
		},
		{
			"bufferView":29,
			"componentType":5126,
			"count":24828,
			"type":"SCALAR",
			"min":[0.500065804
			],
			"max":[0.500065804
			]
		},
		{
			"bufferView":30,
			"componentType":5123,
			"count":27768,
			"type":"SCALAR",
			"min":[0
			],
			"max":[27767
			]
		},
		{
			"bufferView":31,
			"componentType":5126,
			"count":27768,
			"type":"VEC3",
			"min":[-2.60485506,9.11941338,4.26200485
			],
			"max":[-0.740809441,13.3628807,6.97945166
			]
		},
		{
			"bufferView":32,
			"componentType":5126,
			"count":27768,
			"type":"VEC2",
			"min":[6,0.00139588118
			],
			"max":[6.99662113,1
			]
		},
		{
			"bufferView":33,
			"componentType":5125,
			"count":27768,
			"type":"SCALAR",
			"min":[0
			],
			"max":[0
			]
		},
		{
			"bufferView":34,
			"componentType":5126,
			"count":27768,
			"type":"SCALAR",
			"min":[0.583194733
			],
			"max":[0.583194733
			]
		},
		{
			"bufferView":35,
			"componentType":5123,
			"count":24402,
			"type":"SCALAR",
			"min":[0
			],
			"max":[24401
			]
		},
		{
			"bufferView":36,
			"componentType":5126,
			"count":24402,
			"type":"VEC3",
			"min":[-2.81164789,9.24047756,-7.35165024
			],
			"max":[-0.817913115,13.9179611,-4.38690901
			]
		},
		{
			"bufferView":37,
			"componentType":5126,
			"count":24402,
			"type":"VEC2",
			"min":[7,0.00337386131
			],
			"max":[7.99136257,1
			]
		},
		{
			"bufferView":38,
			"componentType":5125,
			"count":24402,
			"type":"SCALAR",
			"min":[0
			],
			"max":[0
			]
		},
		{
			"bufferView":39,
			"componentType":5126,
			"count":24402,
			"type":"SCALAR",
			"min":[0.454044342
			],
			"max":[0.454044342
			]
		}
	],
	"buffers":[
		{
			"uri":"Brain_01_data.bin",
			"byteLength":9736656,
			"name":"main_buffer"
		}
	],
	"bufferViews":[
		{
			"buffer":0,
			"byteLength":289632,
			"target":34963
		},
		{
			"buffer":0,
			"byteOffset":289632,
			"byteLength":868896,
			"target":34962
		},
		{
			"buffer":0,
			"byteOffset":1158528,
			"byteLength":579264,
			"target":34962
		},
		{
			"buffer":0,
			"byteOffset":1737792,
			"byteLength":289632,
			"target":34962
		},
		{
			"buffer":0,
			"byteOffset":2027424,
			"byteLength":289632,
			"target":34962
		},
		{
			"buffer":0,
			"byteOffset":2317056,
			"byteLength":300216,
			"target":34963
		},
		{
			"buffer":0,
			"byteOffset":2617272,
			"byteLength":900648,
			"target":34962
		},
		{
			"buffer":0,
			"byteOffset":3517920,
			"byteLength":600432,
			"target":34962
		},
		{
			"buffer":0,
			"byteOffset":4118352,
			"byteLength":300216,
			"target":34962
		},
		{
			"buffer":0,
			"byteOffset":4418568,
			"byteLength":300216,
			"target":34962
		},
		{
			"buffer":0,
			"byteOffset":4718784,
			"byteLength":141984,
			"target":34963
		},
		{
			"buffer":0,
			"byteOffset":4860768,
			"byteLength":425952,
			"target":34962
		},
		{
			"buffer":0,
			"byteOffset":5286720,
			"byteLength":283968,
			"target":34962
		},
		{
			"buffer":0,
			"byteOffset":5570688,
			"byteLength":141984,
			"target":34962
		},
		{
			"buffer":0,
			"byteOffset":5712672,
			"byteLength":141984,
			"target":34962
		},
		{
			"buffer":0,
			"byteOffset":5854656,
			"byteLength":131280,
			"target":34963
		},
		{
			"buffer":0,
			"byteOffset":5985936,
			"byteLength":393840,
			"target":34962
		},
		{
			"buffer":0,
			"byteOffset":6379776,
			"byteLength":262560,
			"target":34962
		},
		{
			"buffer":0,
			"byteOffset":6642336,
			"byteLength":131280,
			"target":34962
		},
		{
			"buffer":0,
			"byteOffset":6773616,
			"byteLength":131280,
			"target":34962
		},
		{
			"buffer":0,
			"byteOffset":6904896,
			"byteLength":34788,
			"target":34963
		},
		{
			"buffer":0,
			"byteOffset":6939684,
			"byteLength":208728,
			"target":34962
		},
		{
			"buffer":0,
			"byteOffset":7148412,
			"byteLength":139152,
			"target":34962
		},
		{
			"buffer":0,
			"byteOffset":7287564,
			"byteLength":69576,
			"target":34962
		},
		{
			"buffer":0,
			"byteOffset":7357140,
			"byteLength":69576,
			"target":34962
		},
		{
			"buffer":0,
			"byteOffset":7426716,
			"byteLength":49656,
			"target":34963
		},
		{
			"buffer":0,
			"byteOffset":7476372,
			"byteLength":297936,
			"target":34962
		},
		{
			"buffer":0,
			"byteOffset":7774308,
			"byteLength":198624,
			"target":34962
		},
		{
			"buffer":0,
			"byteOffset":7972932,
			"byteLength":99312,
			"target":34962
		},
		{
			"buffer":0,
			"byteOffset":8072244,
			"byteLength":99312,
			"target":34962
		},
		{
			"buffer":0,
			"byteOffset":8171556,
			"byteLength":55536,
			"target":34963
		},
		{
			"buffer":0,
			"byteOffset":8227092,
			"byteLength":333216,
			"target":34962
		},
		{
			"buffer":0,
			"byteOffset":8560308,
			"byteLength":222144,
			"target":34962
		},
		{
			"buffer":0,
			"byteOffset":8782452,
			"byteLength":111072,
			"target":34962
		},
		{
			"buffer":0,
			"byteOffset":8893524,
			"byteLength":111072,
			"target":34962
		},
		{
			"buffer":0,
			"byteOffset":9004596,
			"byteLength":48804,
			"target":34963
		},
		{
			"buffer":0,
			"byteOffset":9053400,
			"byteLength":292824,
			"target":34962
		},
		{
			"buffer":0,
			"byteOffset":9346224,
			"byteLength":195216,
			"target":34962
		},
		{
			"buffer":0,
			"byteOffset":9541440,
			"byteLength":97608,
			"target":34962
		},
		{
			"buffer":0,
			"byteOffset":9639048,
			"byteLength":97608,
			"target":34962
		}
	],
	"nodes":[
		{
			"children":[1,2,3,4,5,6,7,8],
			"name":"Root"
		},
		{
			"name":"HarvardOxford-cort-maxprob-thr0-1mm_Section_0",
			"mesh":0
		},
		{
			"name":"HarvardOxford-cort-maxprob-thr0-1mm_Section_1",
			"mesh":1
		},
		{
			"name":"HarvardOxford-cort-maxprob-thr0-1mm_Section_2",
			"mesh":2
		},
		{
			"name":"HarvardOxford-cort-maxprob-thr0-1mm_Section_3",
			"mesh":3
		},
		{
			"name":"HarvardOxford-cort-maxprob-thr0-1mm_Section_4",
			"mesh":4
		},
		{
			"name":"HarvardOxford-cort-maxprob-thr0-1mm_Section_5",
			"mesh":5
		},
		{
			"name":"HarvardOxford-cort-maxprob-thr0-1mm_Section_6",
			"mesh":6
		},
		{
			"name":"HarvardOxford-cort-maxprob-thr0-1mm_Section_7",
			"mesh":7
		}
	],
	"meshes":[
		{
			"primitives":[
				{
					"attributes":{
						"_coverage":4,
						"_numnonpacked":3,
						"TEXCOORD_0":2,
						"POSITION":1
					},
					"indices":0,
					"material":0
				}
			]
		},
		{
			"primitives":[
				{
					"attributes":{
						"_coverage":9,
						"_numnonpacked":8,
						"TEXCOORD_0":7,
						"POSITION":6
					},
					"indices":5,
					"material":0
				}
			]
		},
		{
			"primitives":[
				{
					"attributes":{
						"_coverage":14,
						"_numnonpacked":13,
						"TEXCOORD_0":12,
						"POSITION":11
					},
					"indices":10,
					"material":0
				}
			]
		},
		{
			"primitives":[
				{
					"attributes":{
						"_coverage":19,
						"_numnonpacked":18,
						"TEXCOORD_0":17,
						"POSITION":16
					},
					"indices":15,
					"material":0
				}
			]
		},
		{
			"primitives":[
				{
					"attributes":{
						"_coverage":24,
						"_numnonpacked":23,
						"TEXCOORD_0":22,
						"POSITION":21
					},
					"indices":20,
					"material":0
				}
			]
		},
		{
			"primitives":[
				{
					"attributes":{
						"_coverage":29,
						"_numnonpacked":28,
						"TEXCOORD_0":27,
						"POSITION":26
					},
					"indices":25,
					"material":0
				}
			]
		},
		{
			"primitives":[
				{
					"attributes":{
						"_coverage":34,
						"_numnonpacked":33,
						"TEXCOORD_0":32,
						"POSITION":31
					},
					"indices":30,
					"material":0
				}
			]
		},
		{
			"primitives":[
				{
					"attributes":{
						"_coverage":39,
						"_numnonpacked":38,
						"TEXCOORD_0":37,
						"POSITION":36
					},
					"indices":35,
					"material":0
				}
			]
		}
	],
	"materials":[
		{
			"name":"principledshader",
			"pbrMetallicRoughness":{
				"baseColorFactor":[0.729411483,0.409590364,0.376017988,1
				],
				"metallicFactor":0,
				"roughnessFactor":0.509000003
			}
		}
	],
	"scenes":[
		{
			"nodes":[0
			]
		}
	],
	"scene":0
}
