<svg xmlns="http://www.w3.org/2000/svg" version="1.1" viewBox="0 0 100 100" xml:space="preserve"><path d="M45.4,76.9c-3.7,0-7.2-1.2-10.2-3.3c-2.5,1.2-5.2,1.8-8,1.8c-6.4,0-11.7-3.2-14.1-8.3c-0.4-0.1-0.8-0.2-1.2-0.3  c-3.1-0.8-5.3-4-5.9-8.2c-0.7-5,1-11.5,6.3-15.1C13,39,15,35.6,18,33.9c1.5-0.9,3.6-1.5,6.1-1.7c0.5-2.5,1.5-4.2,3.3-5.6  c3.1-2.4,5.8-2.6,8.2-0.7c1-0.7,2.1-1.3,3.4-1.7c2.1-0.7,3.9-1.1,5.5-1.1c2.1,0,3.9,0.6,5.5,1.8c2.5-1.7,5.5-2,9-0.8  c0.2,0.1,0,0,0.2,0.1c1.6-0.2,3.3,0,5.2,0.4c1.9,0.5,3.3,1.6,4.2,3.4c2-0.1,3.9,0.8,6.5,2.9c1.7,1.4,3.2,3.3,4.2,5.4  c5.9,1.3,9.9,7,10.6,11.9c0.1,0.9,0.1,1.7-0.2,2.5c4.9,5,5.2,11.6,3.4,16c-1.7,4.1-5.2,6.4-9.8,6.4c-3.8,0-7.9-1.7-10.4-4.3  c-0.3,0.3-0.5,0.5-0.7,0.7c-0.3,0.3-0.6,0.8-0.8,1.1c-1.9,2.4-4,5.2-8.6,5.2l0,0c-2.2,0-4.7-0.7-7.6-1.9c-0.3,0.3-0.7,0.5-1,0.7  C51.6,76.1,48.5,76.9,45.4,76.9L45.4,76.9z M37.1,72.5c2.4,1.5,5.3,2.4,8.3,2.4l0,0c2.7,0,5.3-0.7,7.5-1.9c-0.8-0.4-1.7-0.9-2.6-1.4  c-4.8-2.5-8.2-2.9-10.6-2.9C39.1,70.3,38.2,71.6,37.1,72.5z M56.6,72.4c2.4,1,4.4,1.5,6.2,1.5l0,0c3.6,0,5.3-2.2,7-4.5  c0.3-0.4,0.6-0.8,0.9-1.1c0.2-0.3,0.6-0.6,1-1c-0.4-0.6-0.5-1.1-0.5-1.6L71,65.6l0,0c-1-0.2-1.3-0.3-1.9-0.5H69  c-2,2.1-5.2,2.7-9.6,1.9l0,0l0,0C58.5,69.4,57.6,71.2,56.6,72.4z M15.4,67.1c2.2,3.9,6.6,6.2,11.8,6.2c2.2,0,4.3-0.4,6.2-1.2  c-0.9-0.9-1.8-1.8-2.6-2.9l0,0c-1.8,0-3.3-0.2-4.9-0.6c-2.2-0.6-4.3-1.6-6.1-3.1l0,0l0,0C18.2,66.4,16.8,66.9,15.4,67.1z M44.5,67.2  c2.2,0.5,4.4,1.4,6.8,2.6c1.2,0.7,2.4,1.2,3.5,1.7c1-1.1,1.8-2.7,2.6-5c-0.8-0.2-1.5-0.4-2.1-0.6c-1.9-0.6-2.7-2.3-3.2-4  c-3.9,0.1-4.8,1.4-5.1,2.5C46.5,65.9,45.6,66.8,44.5,67.2z M33.4,69.1c0.6,0.8,1.3,1.4,2,2c0.8-0.5,1.5-1.3,2.1-2.4  c-0.7,0-1.3,0.1-1.9,0.2C34.8,69,34.1,69,33.4,69.1z M74.4,67.4c2.1,2.2,5.7,3.6,9,3.6c2.2,0,6.1-0.7,8-5.2  c1.5-3.7,1.3-9.1-2.5-13.4c-1.3,1.6-3.5,2.5-5.5,2.7l0.2,0.2c3.3,1,5.1,2.5,5.7,4.4c0.7,2.5,0.6,4.4-0.5,5.8c-1,1.4-2.9,2-5.7,2  c-2,0-3.9-0.3-7.9-1.1l0,0h0.1C74.8,66.9,74.6,67.2,74.4,67.4z M28.4,58.8c0.8,3.2,2,6,3.5,8.3c1.2,0,2.3-0.1,3.4-0.2  c0.9-0.1,1.9-0.2,2.9-0.2c0.2-0.5,0.3-1.1,0.4-1.7c-1.1-1-2-2.3-2.8-3.7l0,0c-2-0.5-3.7-1.8-5.3-3.9C29.9,57.8,29.2,58.3,28.4,58.8z   M21.5,64.2c1.5,1.1,3.1,1.9,4.9,2.4c1,0.3,2.1,0.4,3.1,0.5c-1.2-2-2.1-4.4-2.8-7c-1.1,0.8-2,1.6-2.9,2.3C23,63,22.2,63.6,21.5,64.2  z M40.3,66.7c0.2,0,0.4,0,0.6,0c-0.2-0.1-0.3-0.2-0.5-0.3C40.3,66.7,40.3,66.7,40.3,66.7z M76.4,64.8c2.8,0.6,4.9,0.8,6.6,0.8  c2.1,0,3.4-0.4,4-1.2c0.6-0.8,0.7-2.2,0.1-4c-0.3-1.1-1.5-2-3.6-2.8c0,0.5-0.1,1-0.3,1.5c-0.9,2.1-3.6,3-6.2,3.9  C77,63.6,76.8,64.2,76.4,64.8z M59.9,65.1c2.9,0.5,5.1,0.3,6.6-0.6c-2-0.5-4.1-1-6-1.4C60.3,63.8,60.1,64.5,59.9,65.1z M40.8,64.2  c0.9,0.7,1.8,1.1,2.6,1.1l0,0c0.3,0,1.2,0,1.7-1.5c0.8-2.4,3-3.7,6.5-3.9l0,0l0,0c-0.1,0,0,0-0.2-1.1c-0.2-1.2-0.5-2.4-0.8-3.6  c-1.4-0.9-2.7-2.2-4-4v0.1l0,0c-1.3,4.6-2.8,7.9-5.3,9.3l0,0C41.1,61.9,41,63.1,40.8,64.2z M14.2,57.6c-0.6,1.3-1,3.5,0.1,7.1  c0,0.1,0.1,0.3,0.1,0.4c1.2,0,2.4-0.4,3.8-1.2C16.7,62.2,15.3,60.1,14.2,57.6z M12.1,46.3C8.5,49.5,7.4,54.4,8,58.4  c0.5,3.3,2.1,5.8,4.3,6.5c-1.6-5.4-0.1-8.2,1-9.5l0,0l0,0C12.4,52.4,12,49.2,12.1,46.3z M54.2,62.1c0.4,1.2,0.9,1.8,1.7,2  c0.5,0.2,1.3,0.4,2.1,0.6c0.2-0.6,0.4-1.2,0.6-2C56.9,62.4,55.5,62.2,54.2,62.1z M74,64.3c0.1,0,0.2,0.1,0.3,0.1  c0.1-0.1,0.2-0.2,0.2-0.4C74.4,64.1,74.2,64.2,74,64.3z M70.1,63.4c0.5,0.1,1,0.2,1.5,0.4c0.7-1,2.1-1.6,3.7-2.1  c-0.1-1.1-0.7-2.1-1.9-3.2c-0.5-0.4-1-0.9-1.4-1.4c-0.5,1.4-0.8,2.6-1,3.6C70.8,61.6,70.5,62.5,70.1,63.4z M61,61  c2.3,0.5,4.7,1.2,7.1,1.8c0.4-0.7,0.7-1.6,0.9-2.6c0.2-1.3,0.7-2.8,1.4-4.8l-1.9-0.2c-1.7,0.4-3.8,0.9-6.3,1.2  c-0.2,0.8-0.4,1.6-0.7,2.4C61,60.9,61.5,58.8,61,61L61,61L61,61z M15.7,56c1,2.7,2.5,5,4.3,6.8c0.8-0.6,1.5-1.3,2.5-2  c1.1-0.9,2.5-1.8,3.5-2.9l0,0h0.1c-0.3-1.2-0.4-2.5-0.6-3.8c-0.3-2.5-0.6-4.8-0.9-6.9c-1.3-2-2.6-3.1-4-3.6c-0.7,0.5-1.1,1-1.1,1.5  c-0.1,0.4,0.1,0.8,0.5,1.2c3.4,4.1,3.2,6.8,2.5,8.3c-0.7,1.4-2.1,2.1-3.1,2.1c-0.6,0-1.1-0.2-1.4-0.5C17.4,55.7,16.5,55.6,15.7,56z   M38.4,61.5c0.2,0.3,0.4,0.6,0.7,0.9c0-0.3,0.1-0.6,0.1-1c-0.1,0,0.1,0,0,0C39,61.5,38.5,61.5,38.4,61.5z M73.5,55.7  c0.3,0.4,0.7,0.8,1.1,1.2c1.5,1.3,2.3,2.6,2.6,4l0.2-0.1l0,0c1.8-0.6,3.6-1.4,4-2.5c0.2-0.4,0.2-0.8,0-1.4  C79.1,56.4,76.3,56,73.5,55.7z M53.6,60c1.5,0.1,3.3,0.3,5.4,0.7c0.2-0.7,0.4-1.5,0.6-2.3c0.2-0.6,0.3-1.2,0.5-1.8  c-1.4,0.1-2.8,0.2-4.2,0.2h-0.2c-1,0-1.9-0.1-2.8-0.4c0.2,0.7,0.3,1.4,0.4,2.1C53.4,59,53.5,59.5,53.6,60z M37.3,59.5  c0.4,0.1,0.9,0.1,1.4,0c0.2,0,0.5-0.1,0.7-0.1l0,0c0.2-2.4,0.3-5.3,0.8-7.1c-1.5,0.6-2.9,1.3-4.2,2C36.1,56,36.5,57.8,37.3,59.5z   M32.3,56.3c0.8,1,1.6,1.8,2.5,2.3c-0.4-1.1-0.6-2.2-0.7-3.4C33.4,55.6,32.8,55.9,32.3,56.3z M42.7,51.3c-0.8,1.4-1.1,4-1.3,6.8  c1.4-1.6,2.4-4.4,3.2-7.4C44,50.8,43.4,51,42.7,51.3z M27.3,51.8c0.1,0.7,0.2,1.3,0.3,2c0.1,1,0.3,1.9,0.5,2.8c0.5-0.3,1-0.7,1.4-1  C28.6,54.5,27.9,53.1,27.3,51.8z M52.2,54c1.1,0.6,2.3,0.9,3.5,0.9h0.1c1.6,0,3.2-0.3,4.8-0.5c0-0.1,0.1-0.5,0.1-0.5l0,0v0.2  c-2.3-0.4-3.9-0.9-4.9-1.6c-1.7-1.1-1.7-3.1-1.4-4.7c-2,0.4-3.9,0.9-5.7,1.5C50.7,50.5,51.6,52.5,52.2,54z M26.6,46.6  c0.8,1.3,1.6,2.7,2.3,4.1c0.7,1.3,1.4,2.7,2.2,4c0.9-0.6,1.9-1.1,2.8-1.6l0,0c0.1-2.8,1-5.3,2.6-8.3l0,0l-0.1,0  c-1.6-0.3-2.6-1.1-3.1-2.3c-0.3-0.9-0.7-1.8-0.9-2.6c-2.3,0.4-4.5,0.8-6.5,1.4C26.2,42.7,26.4,44.5,26.6,46.6z M19,54.5  c0.1,0,0.3,0.1,0.4,0.1c0.4,0,1-0.3,1.3-0.9c0.3-0.6,0.7-2.5-2.3-6.1c-0.7-0.9-1-1.8-0.9-2.8c0.1-0.5,0.3-0.9,0.6-1.4  c-0.5,0.1-1,0.2-1.6,0.4c-0.8,0.3-1.6,0.6-2.3,1c-0.3,3,0,6.2,0.9,9.3c1.4-0.6,3-0.4,4.1,0.5L19,54.5z M74.6,53.8  c1.3,0.2,2.7,0.3,3.9,0.5c-0.3-0.2-0.5-0.5-0.7-0.7C76.9,53.5,75.7,53.6,74.6,53.8z M81.4,53.3c1.9,0.2,4.6-0.5,5.8-2.1  c-1.7-1.5-3.8-2.6-6.3-3.5c-0.3,1.4-0.7,2.6-1.3,3.6c-0.1,0.2-0.3,0.5-0.3,0.7C80.1,52.2,80.8,52.7,81.4,53.3z M63.3,52.6  c1.7,0.2,3.5,0.4,5.1,0.6c0.4-0.1,0.8-0.2,1.2-0.3l0,0c-0.7-1.9-1.1-4.1-1.3-6.9c-0.8,0-1.7,0.1-2.5,0.1  C64.9,47.9,64.1,50,63.3,52.6z M70.3,46c0.2,2.6,0.6,4.7,1.3,6.4c0,0,0,0,0.1,0l0.4-0.8c0.8-1.8,1.6-3.6,2.2-5.3  C73,46.1,71.7,46,70.3,46z M56.6,47.4c-0.7,2.8,0.1,3.3,0.3,3.5c0.8,0.5,2.3,1,4.4,1.4c0.7-2.3,1.4-4.3,2.2-6  C61.3,46.6,59,46.9,56.6,47.4z M38.9,44.9c-1.6,2.2-2.6,4.6-2.9,7c1.7-0.8,3.5-1.6,5.4-2.3c0.8-1,1.8-1.5,3.1-1.5  c-0.6-1.1-1.2-2.3-1.8-3.7C41.3,44.7,40,44.9,38.9,44.9z M76.3,46.5c-0.6,1.7-1.4,3.6-2.2,5.4c0.9-0.2,1.9-0.3,2.8-0.3l0.5-0.1l0,0  c0.1-0.4,0.2-0.8,0.5-1.3c0.5-0.9,0.9-2,1.1-3.2C78.2,46.8,77.2,46.6,76.3,46.5z M81.2,45.6c2.6,0.8,4.8,2,6.7,3.5  c0-0.2,0-0.4,0-0.6c-0.6-3.8-3.5-8.2-7.6-9.8C81,41,81.3,43.3,81.2,45.6L81.2,45.6L81.2,45.6z M47.5,47.6L47.5,47.6  c2.4-0.7,4.9-1.3,7.5-1.9c0.6-1.7,1.4-3.6,2.3-5.6c-1.1,0.3-2.3,0.7-3.4,1.1c-1.8,0.6-3.6,1.1-5.4,1.7c-0.2,0.9-0.4,1.7-0.6,2.6  C47.8,46.2,47.6,46.9,47.5,47.6L47.5,47.6z M44.8,43.9c0.4,0.8,0.7,1.5,1,2.2c0.1-0.4,0.2-0.7,0.2-1.1c0.1-0.5,0.2-1,0.3-1.5l0,0  l0,0C45.8,43.6,45.3,43.8,44.8,43.9z M59.9,39.4c-0.2,0.5-0.4,0.9-0.6,1.4c-0.7,1.6-1.4,3.1-2,4.5c2.5-0.5,4.9-0.8,7.2-1h-0.1  c1.1-1.9,2.5-3.4,3.5-4.6v-0.1c0-0.7,0.1-1.3,0.1-2C65.5,37.8,62.5,38.6,59.9,39.4z M76.9,44.5c0.8,0.1,1.6,0.3,2.4,0.5  c0.1-2.3-0.4-4.7-1.3-6.9c-0.6-0.1-1.2-0.1-1.8,0C77.6,40.1,77.3,42.8,76.9,44.5z M70.2,44c1.6,0,3.2,0.1,4.6,0.3  c0.9-3.5,0-4.9-1-5.7c-1.2,0.4-2.5,1.1-3.7,2C70.2,41.7,70.2,42.8,70.2,44z M68.2,42.4c-0.4,0.5-0.8,1-1.2,1.6c0.4,0,0.8,0,1.2,0  C68.2,43.5,68.2,42.9,68.2,42.4z M22.7,42.4c0.6,0.3,1.1,0.7,1.5,1.2c-0.1-0.6-0.1-1.2-0.2-1.7C23.6,42.1,23.2,42.2,22.7,42.4z   M34.5,39.6c0.2,0.7,0.5,1.4,0.8,2.2c0.1,0.3,0.4,1.1,2.6,1.2c0.9-1.1,1.9-2.1,3-3l-0.2-0.5C39.2,39.2,37,39.3,34.5,39.6z   M41.7,41.9c-0.3,0.3-0.6,0.6-0.9,0.8c0.4-0.1,0.7-0.1,1.1-0.2C41.7,41.9,41.8,42.1,41.7,41.9z M23.8,34.3c-2.1,0.2-3.7,0.6-4.9,1.4  c-2.1,1.2-3.6,3.6-4.4,6.7c0.4-0.2,0.9-0.3,1.3-0.5c1.6-0.5,3-0.6,4.3-0.4l0,0h0.1c1-0.6,1.7-1.1,3.7-1.6l0,0l0,0  C23.8,37.6,23.7,35.8,23.8,34.3z M43.3,40.5c0.2,0.5,0.4,1.1,0.7,1.6c0.9-0.2,1.9-0.5,3-0.8c1.1-4.3,2.4-8.7,4.5-12  c-0.5-0.7-1-1.3-1.5-1.8c-0.9,0.8-1.6,1.7-2.4,2.6c-1.2,1.5-2.4,2.9-4,3.6c-0.7,0.3-1.7,0.6-2.8,0.7c0.4,1,0.9,2.1,1.3,3.1  c0.6,0.2,1.4,0.5,1.7,1.3C43.9,39.4,43.7,40,43.3,40.5z M52.6,31.2c-1.5,2.6-2.6,6-3.5,9.4c1.4-0.4,2.8-0.9,4.2-1.3  c1.7-0.5,3.4-1.1,5.1-1.6c0.8-1.7,1.5-3.5,2-5.1c-0.6,0.3-1,0.6-1.4,0.8c-1,0.6-1.7,1-2.6,1C55,34.4,53.9,33.3,52.6,31.2z   M25.9,34.1c-0.1,1.3-0.1,3,0,5.1c1.9-0.5,4-1,6.1-1.3c-0.3-1.3-0.4-2.5-0.4-3.6C29.7,34.2,27.7,34.1,25.9,34.1z M70.1,37.5  c0,0.2,0,0.5,0,0.7c0.3-0.2,0.7-0.4,1-0.6C70.8,37.5,70.5,37.5,70.1,37.5z M33.6,34.4c0,1,0.2,2,0.4,3.2c2.2-0.3,4.3-0.4,5.9-0.3  c-0.4-0.9-0.7-1.8-1.1-2.7C37.1,34.7,35.4,34.6,33.6,34.4z M62.7,31.6c-0.3,1.7-1,3.5-1.8,5.4c3-0.8,5.3-1.3,7.1-1.5  c-0.1-1.8-0.2-3.8-0.7-5.4c-0.8,0.2-1.8,0.5-3,0.9C63.7,31.3,63.3,31.4,62.7,31.6z M70.1,35.5c0.5,0,1,0.1,1.5,0.2  c1,0.2,1.8,0.5,2.5,0.8l0,0l0,0c0.9-0.2,1.8-0.3,2.8-0.4c-0.8-1.4-1.9-2.6-3.1-3.6c-2.1-1.7-3.3-2.3-4.4-2.4  C69.8,31.7,70,33.6,70.1,35.5L70.1,35.5z M33.7,32.5c1.5,0.1,2.9,0.2,4.1,0.2c-0.8-1.7-1.6-3-2.4-4C34.5,29.7,33.9,30.9,33.7,32.5z   M37,27.3c1,1.2,2,2.9,3,5.2c1.2-0.1,2.1-0.3,2.8-0.6c1.1-0.5,2.2-1.8,3.3-3.1c0.7-0.9,1.5-1.8,2.3-2.6c-1.2-0.7-2.5-1.1-3.9-1.1  s-2.9,0.3-4.8,1C38.6,26.4,37.7,26.9,37,27.3z M53.8,29.4c0.8,1.3,1.9,3,2.5,3c0.3,0,0.9-0.3,1.6-0.7c0.8-0.4,1.7-1,2.9-1.5  c0.2-2.6-0.9-3.5-2-4C57,26.5,55.3,27.6,53.8,29.4z M31.6,32.3L31.6,32.3c0.3-2,1.1-3.7,2.4-5.1c-1.6-1.1-3.3-0.8-5.4,0.9  c-1.3,1-2,2.2-2.4,4C27.9,32.1,29.9,32.2,31.6,32.3L31.6,32.3z M62,26.1c0.6,0.9,0.9,2,0.9,3.3H63l0,0c0,0,0,0,0.7-0.2  c1-0.4,1.9-0.7,2.8-0.9c-0.6-0.9-1.5-1.5-2.6-1.8C63.2,26.3,62.6,26.2,62,26.1z M52.7,27.5L52.7,27.5c0.9-0.8,1.7-1.6,2.7-2.1  c-1.4-0.1-2.7,0.2-3.8,0.9C51.9,26.7,52.3,27.1,52.7,27.5L52.7,27.5z"/></svg>