{"asset":{"version":"2.0","generator":"HoudiniGLTF2.0Exporter"},"accessors":[{"bufferView":0,"componentType":5123,"count":21834,"type":"SCALAR","min":[0],"max":[21833]},{"bufferView":1,"componentType":5126,"count":21834,"type":"VEC3","min":[-12.7031984,-19.4461479,-9.30958176],"max":[12.3834991,7.63202381,8.80854702]},{"bufferView":2,"componentType":5126,"count":21834,"type":"VEC3","min":[-0.999809325,-0.99990356,-0.999898732],"max":[0.999318838,0.999228418,0.999898732]}],"buffers":[{"uri":"Head_02_data.bin","byteLength":567684,"name":"main_buffer"}],"bufferViews":[{"buffer":0,"byteLength":43668,"target":34963},{"buffer":0,"byteOffset":43668,"byteLength":262008,"target":34962},{"buffer":0,"byteOffset":305676,"byteLength":262008,"target":34962}],"nodes":[{"children":[1],"name":"Root"},{"name":"Head","mesh":0}],"meshes":[{"primitives":[{"attributes":{"NORMAL":2,"POSITION":1},"indices":0}]}],"scenes":[{"nodes":[0]}],"scene":0}