{
    "asset":{
        "version":"2.0",
        "generator":"Houdini GLTF 2.0 Exporter 17.0 Alpha"
    },
    "accessors":[
        {
            "bufferView":0,
            "componentType":5123,
            "count":19338,
            "type":"SCALAR",
            "min":[0
            ],
            "max":[19337
            ]
        },
        {
            "bufferView":1,
            "componentType":5126,
            "count":19338,
            "type":"VEC3",
            "min":[-6.64196777,6.12445831,-0.153561756
            ],
            "max":[10.1029987,17.4370003,5.91030598
            ]
        },
        {
            "bufferView":2,
            "componentType":5126,
            "count":19338,
            "type":"VEC3",
            "min":[-0.989534259,-0.99965167,-0.999875247
            ],
            "max":[0.993369997,0.999934316,0.999926984
            ]
        },
        {
            "bufferView":3,
            "componentType":5125,
            "count":19338,
            "type":"SCALAR",
            "min":[0
            ],
            "max":[0
            ]
        },
        {
            "bufferView":4,
            "componentType":5126,
            "count":19338,
            "type":"VEC3",
            "min":[0.782605052,0.225058913,0.110562325
            ],
            "max":[0.782605052,0.225058913,0.110562325
            ]
        },
        {
            "bufferView":5,
            "componentType":5123,
            "count":25320,
            "type":"SCALAR",
            "min":[0
            ],
            "max":[25319
            ]
        },
        {
            "bufferView":6,
            "componentType":5126,
            "count":25320,
            "type":"VEC3",
            "min":[-7.45158339,4.85427141,-0.252009332
            ],
            "max":[10.7546568,18.1528473,7.14661789
            ]
        },
        {
            "bufferView":7,
            "componentType":5126,
            "count":25320,
            "type":"VEC3",
            "min":[-0.998469889,-0.999912441,-0.999998331
            ],
            "max":[0.998090982,0.999619544,0.999994159
            ]
        },
        {
            "bufferView":8,
            "componentType":5125,
            "count":25320,
            "type":"SCALAR",
            "min":[1
            ],
            "max":[1
            ]
        },
        {
            "bufferView":9,
            "componentType":5126,
            "count":25320,
            "type":"VEC3",
            "min":[0.734763503,0.804213166,0.203501821
            ],
            "max":[0.734763503,0.804213166,0.203501821
            ]
        },
        {
            "bufferView":10,
            "componentType":5123,
            "count":1692,
            "type":"SCALAR",
            "min":[0
            ],
            "max":[1691
            ]
        },
        {
            "bufferView":11,
            "componentType":5126,
            "count":1692,
            "type":"VEC3",
            "min":[-2.91357589,9.80869961,-0.0541346855
            ],
            "max":[6.0154438,12.8080225,3.20041084
            ]
        },
        {
            "bufferView":12,
            "componentType":5126,
            "count":1692,
            "type":"VEC3",
            "min":[-0.959994197,-0.996206164,-0.999859333
            ],
            "max":[0.888674617,0.996846855,0.989594638
            ]
        },
        {
            "bufferView":13,
            "componentType":5125,
            "count":1692,
            "type":"SCALAR",
            "min":[2
            ],
            "max":[2
            ]
        },
        {
            "bufferView":14,
            "componentType":5126,
            "count":1692,
            "type":"VEC3",
            "min":[0.0760958195,0.208900213,0.0875952244
            ],
            "max":[0.0760958195,0.208900213,0.0875952244
            ]
        },
        {
            "bufferView":15,
            "componentType":5123,
            "count":654,
            "type":"SCALAR",
            "min":[0
            ],
            "max":[653
            ]
        },
        {
            "bufferView":16,
            "componentType":5126,
            "count":654,
            "type":"VEC3",
            "min":[-0.0322901122,9.46995449,-0.0453828573
            ],
            "max":[3.73871279,11.9486399,2.23090196
            ]
        },
        {
            "bufferView":17,
            "componentType":5126,
            "count":654,
            "type":"VEC3",
            "min":[-0.997491896,-0.999365568,-0.980844676
            ],
            "max":[0.968777537,0.993158698,0.986643374
            ]
        },
        {
            "bufferView":18,
            "componentType":5125,
            "count":654,
            "type":"SCALAR",
            "min":[3
            ],
            "max":[3
            ]
        },
        {
            "bufferView":19,
            "componentType":5126,
            "count":654,
            "type":"VEC3",
            "min":[0.157352686,0.0571354628,0.458404422
            ],
            "max":[0.157352686,0.0571354628,0.458404422
            ]
        },
        {
            "bufferView":20,
            "componentType":5123,
            "count":762,
            "type":"SCALAR",
            "min":[0
            ],
            "max":[761
            ]
        },
        {
            "bufferView":21,
            "componentType":5126,
            "count":762,
            "type":"VEC3",
            "min":[-2.45698094,9.4094944,0.51853627
            ],
            "max":[2.01202273,12.5286427,1.84080315
            ]
        },
        {
            "bufferView":22,
            "componentType":5126,
            "count":762,
            "type":"VEC3",
            "min":[-0.969899237,-0.967374563,-0.989868402
            ],
            "max":[0.971758664,0.983613491,0.998520494
            ]
        },
        {
            "bufferView":23,
            "componentType":5125,
            "count":762,
            "type":"SCALAR",
            "min":[4
            ],
            "max":[4
            ]
        },
        {
            "bufferView":24,
            "componentType":5126,
            "count":762,
            "type":"VEC3",
            "min":[0.9169209,0.557443023,0.887660623
            ],
            "max":[0.9169209,0.557443023,0.887660623
            ]
        },
        {
            "bufferView":25,
            "componentType":5123,
            "count":666,
            "type":"SCALAR",
            "min":[0
            ],
            "max":[665
            ]
        },
        {
            "bufferView":26,
            "componentType":5126,
            "count":666,
            "type":"VEC3",
            "min":[-1.95943224,8.7359333,1.31637549
            ],
            "max":[2.16867542,11.4007206,3.24906921
            ]
        },
        {
            "bufferView":27,
            "componentType":5126,
            "count":666,
            "type":"VEC3",
            "min":[-0.986893833,-0.978731275,-0.997209728
            ],
            "max":[0.875432968,0.974082887,0.994493008
            ]
        },
        {
            "bufferView":28,
            "componentType":5125,
            "count":666,
            "type":"SCALAR",
            "min":[5
            ],
            "max":[5
            ]
        },
        {
            "bufferView":29,
            "componentType":5126,
            "count":666,
            "type":"VEC3",
            "min":[0.0249203444,0.200702071,0.886578441
            ],
            "max":[0.0249203444,0.200702071,0.886578441
            ]
        },
        {
            "bufferView":30,
            "componentType":5123,
            "count":330,
            "type":"SCALAR",
            "min":[0
            ],
            "max":[329
            ]
        },
        {
            "bufferView":31,
            "componentType":5126,
            "count":330,
            "type":"VEC3",
            "min":[-0.620882928,9.21721458,1.14964092
            ],
            "max":[1.8776226,10.6709051,2.702389
            ]
        },
        {
            "bufferView":32,
            "componentType":5126,
            "count":330,
            "type":"VEC3",
            "min":[-0.975380599,-0.98167783,-0.938885689
            ],
            "max":[0.984247625,0.988512099,0.961271226
            ]
        },
        {
            "bufferView":33,
            "componentType":5125,
            "count":330,
            "type":"SCALAR",
            "min":[6
            ],
            "max":[6
            ]
        },
        {
            "bufferView":34,
            "componentType":5126,
            "count":330,
            "type":"VEC3",
            "min":[0.605744004,0.590234637,0.114994407
            ],
            "max":[0.605744004,0.590234637,0.114994407
            ]
        },
        {
            "bufferView":35,
            "componentType":5123,
            "count":1614,
            "type":"SCALAR",
            "min":[0
            ],
            "max":[1613
            ]
        },
        {
            "bufferView":36,
            "componentType":5126,
            "count":1614,
            "type":"VEC3",
            "min":[1.07560861,3.02298403,-2.32873845
            ],
            "max":[5.11209631,10.0453348,2.15207624
            ]
        },
        {
            "bufferView":37,
            "componentType":5126,
            "count":1614,
            "type":"VEC3",
            "min":[-0.997524858,-0.9720397,-0.997535825
            ],
            "max":[0.996368647,0.996813416,0.995325744
            ]
        },
        {
            "bufferView":38,
            "componentType":5125,
            "count":1614,
            "type":"SCALAR",
            "min":[7
            ],
            "max":[7
            ]
        },
        {
            "bufferView":39,
            "componentType":5126,
            "count":1614,
            "type":"VEC3",
            "min":[0.627610087,0.0261656046,0.225529313
            ],
            "max":[0.627610087,0.0261656046,0.225529313
            ]
        },
        {
            "bufferView":40,
            "componentType":5123,
            "count":960,
            "type":"SCALAR",
            "min":[0
            ],
            "max":[959
            ]
        },
        {
            "bufferView":41,
            "componentType":5126,
            "count":960,
            "type":"VEC3",
            "min":[0.438950866,7.06373215,0.919534028
            ],
            "max":[4.26173162,10.5373859,3.59829307
            ]
        },
        {
            "bufferView":42,
            "componentType":5126,
            "count":960,
            "type":"VEC3",
            "min":[-0.994254291,-0.952218771,-0.9598943
            ],
            "max":[0.998296022,0.99483043,0.985414982
            ]
        },
        {
            "bufferView":43,
            "componentType":5125,
            "count":960,
            "type":"SCALAR",
            "min":[8
            ],
            "max":[8
            ]
        },
        {
            "bufferView":44,
            "componentType":5126,
            "count":960,
            "type":"VEC3",
            "min":[0.0110217333,0.406361818,0.856652021
            ],
            "max":[0.0110217333,0.406361818,0.856652021
            ]
        }
    ],
    "buffers":[
        {
            "uri":"Brain_002_data.bin",
            "byteLength":2156112,
            "name":"main_buffer"
        }
    ],
    "bufferViews":[
        {
            "buffer":0,
            "byteLength":38676,
            "target":34963
        },
        {
            "buffer":0,
            "byteOffset":38676,
            "byteLength":232056,
            "target":34962
        },
        {
            "buffer":0,
            "byteOffset":270732,
            "byteLength":232056,
            "target":34962
        },
        {
            "buffer":0,
            "byteOffset":502788,
            "byteLength":77352,
            "target":34962
        },
        {
            "buffer":0,
            "byteOffset":580140,
            "byteLength":232056,
            "target":34962
        },
        {
            "buffer":0,
            "byteOffset":812196,
            "byteLength":50640,
            "target":34963
        },
        {
            "buffer":0,
            "byteOffset":862836,
            "byteLength":303840,
            "target":34962
        },
        {
            "buffer":0,
            "byteOffset":1166676,
            "byteLength":303840,
            "target":34962
        },
        {
            "buffer":0,
            "byteOffset":1470516,
            "byteLength":101280,
            "target":34962
        },
        {
            "buffer":0,
            "byteOffset":1571796,
            "byteLength":303840,
            "target":34962
        },
        {
            "buffer":0,
            "byteOffset":1875636,
            "byteLength":3384,
            "target":34963
        },
        {
            "buffer":0,
            "byteOffset":1879020,
            "byteLength":20304,
            "target":34962
        },
        {
            "buffer":0,
            "byteOffset":1899324,
            "byteLength":20304,
            "target":34962
        },
        {
            "buffer":0,
            "byteOffset":1919628,
            "byteLength":6768,
            "target":34962
        },
        {
            "buffer":0,
            "byteOffset":1926396,
            "byteLength":20304,
            "target":34962
        },
        {
            "buffer":0,
            "byteOffset":1946700,
            "byteLength":1308,
            "target":34963
        },
        {
            "buffer":0,
            "byteOffset":1948008,
            "byteLength":7848,
            "target":34962
        },
        {
            "buffer":0,
            "byteOffset":1955856,
            "byteLength":7848,
            "target":34962
        },
        {
            "buffer":0,
            "byteOffset":1963704,
            "byteLength":2616,
            "target":34962
        },
        {
            "buffer":0,
            "byteOffset":1966320,
            "byteLength":7848,
            "target":34962
        },
        {
            "buffer":0,
            "byteOffset":1974168,
            "byteLength":1524,
            "target":34963
        },
        {
            "buffer":0,
            "byteOffset":1975692,
            "byteLength":9144,
            "target":34962
        },
        {
            "buffer":0,
            "byteOffset":1984836,
            "byteLength":9144,
            "target":34962
        },
        {
            "buffer":0,
            "byteOffset":1993980,
            "byteLength":3048,
            "target":34962
        },
        {
            "buffer":0,
            "byteOffset":1997028,
            "byteLength":9144,
            "target":34962
        },
        {
            "buffer":0,
            "byteOffset":2006172,
            "byteLength":1332,
            "target":34963
        },
        {
            "buffer":0,
            "byteOffset":2007504,
            "byteLength":7992,
            "target":34962
        },
        {
            "buffer":0,
            "byteOffset":2015496,
            "byteLength":7992,
            "target":34962
        },
        {
            "buffer":0,
            "byteOffset":2023488,
            "byteLength":2664,
            "target":34962
        },
        {
            "buffer":0,
            "byteOffset":2026152,
            "byteLength":7992,
            "target":34962
        },
        {
            "buffer":0,
            "byteOffset":2034144,
            "byteLength":660,
            "target":34963
        },
        {
            "buffer":0,
            "byteOffset":2034804,
            "byteLength":3960,
            "target":34962
        },
        {
            "buffer":0,
            "byteOffset":2038764,
            "byteLength":3960,
            "target":34962
        },
        {
            "buffer":0,
            "byteOffset":2042724,
            "byteLength":1320,
            "target":34962
        },
        {
            "buffer":0,
            "byteOffset":2044044,
            "byteLength":3960,
            "target":34962
        },
        {
            "buffer":0,
            "byteOffset":2048004,
            "byteLength":3228,
            "target":34963
        },
        {
            "buffer":0,
            "byteOffset":2051232,
            "byteLength":19368,
            "target":34962
        },
        {
            "buffer":0,
            "byteOffset":2070600,
            "byteLength":19368,
            "target":34962
        },
        {
            "buffer":0,
            "byteOffset":2089968,
            "byteLength":6456,
            "target":34962
        },
        {
            "buffer":0,
            "byteOffset":2096424,
            "byteLength":19368,
            "target":34962
        },
        {
            "buffer":0,
            "byteOffset":2115792,
            "byteLength":1920,
            "target":34963
        },
        {
            "buffer":0,
            "byteOffset":2117712,
            "byteLength":11520,
            "target":34962
        },
        {
            "buffer":0,
            "byteOffset":2129232,
            "byteLength":11520,
            "target":34962
        },
        {
            "buffer":0,
            "byteOffset":2140752,
            "byteLength":3840,
            "target":34962
        },
        {
            "buffer":0,
            "byteOffset":2144592,
            "byteLength":11520,
            "target":34962
        }
    ],
    "nodes":[
        {
            "children":[1,2,3,4,5,6,7,8,9,10,11,12
            ],
            "name":"Root"
        },
        {
            "name":"Segment_0",
            "mesh":0
        },
        {
            "name":"Segment_1",
            "mesh":1
        },
        {
            "name":"Segment_2",
            "mesh":2
        },
        {
            "name":"Segment_3",
            "mesh":3
        },
        {
            "name":"Segment_4",
            "mesh":4
        },
        {
            "name":"Segment_5",
            "mesh":5
        },
        {
            "name":"Segment_6",
            "mesh":6
        },
        {
            "name":"Segment_7",
            "mesh":7
        },
        {
            "name":"Segment_8",
            "mesh":8
        },
        {
            "name":"Segment_9"
        },
        {
            "name":"Segment_10"
        },
        {
            "name":"Segment_11"
        }
    ],
    "meshes":[
        {
            "primitives":[
                {
                    "attributes":{
                        "COLOR_0":4,
                        "NORMAL":2,
                        "_Segment":3,
                        "POSITION":1
                    },
                    "indices":0
                }
            ]
        },
        {
            "primitives":[
                {
                    "attributes":{
                        "COLOR_0":9,
                        "NORMAL":7,
                        "_Segment":8,
                        "POSITION":6
                    },
                    "indices":5
                }
            ]
        },
        {
            "primitives":[
                {
                    "attributes":{
                        "COLOR_0":14,
                        "NORMAL":12,
                        "_Segment":13,
                        "POSITION":11
                    },
                    "indices":10
                }
            ]
        },
        {
            "primitives":[
                {
                    "attributes":{
                        "COLOR_0":19,
                        "NORMAL":17,
                        "_Segment":18,
                        "POSITION":16
                    },
                    "indices":15
                }
            ]
        },
        {
            "primitives":[
                {
                    "attributes":{
                        "COLOR_0":24,
                        "NORMAL":22,
                        "_Segment":23,
                        "POSITION":21
                    },
                    "indices":20
                }
            ]
        },
        {
            "primitives":[
                {
                    "attributes":{
                        "COLOR_0":29,
                        "NORMAL":27,
                        "_Segment":28,
                        "POSITION":26
                    },
                    "indices":25
                }
            ]
        },
        {
            "primitives":[
                {
                    "attributes":{
                        "COLOR_0":34,
                        "NORMAL":32,
                        "_Segment":33,
                        "POSITION":31
                    },
                    "indices":30
                }
            ]
        },
        {
            "primitives":[
                {
                    "attributes":{
                        "COLOR_0":39,
                        "NORMAL":37,
                        "_Segment":38,
                        "POSITION":36
                    },
                    "indices":35
                }
            ]
        },
        {
            "primitives":[
                {
                    "attributes":{
                        "COLOR_0":44,
                        "NORMAL":42,
                        "_Segment":43,
                        "POSITION":41
                    },
                    "indices":40
                }
            ]
        }
    ],
    "scenes":[
        {
            "nodes":[0
            ]
        }
    ],
    "scene":0
}