{
	"asset":{
		"version":"2.0",
		"generator":"Houdini GLTF 2.0 Exporter"
	},
	"accessors":[
		{
			"bufferView":0,
			"componentType":5123,
			"count":20958,
			"type":"SCALAR",
			"min":[0
			],
			"max":[20957
			]
		},
		{
			"bufferView":1,
			"componentType":5126,
			"count":20958,
			"type":"VEC3",
			"min":[-11.887229,-20.5911732,-27.773716
			],
			"max":[12.2443199,20.5911732,8.51060867
			]
		},
		{
			"bufferView":2,
			"componentType":5126,
			"count":20958,
			"type":"VEC2",
			"min":[0.00704336865,0.109210312
			],
			"max":[0.991530001,0.991905093
			]
		},
		{
			"bufferView":3,
			"componentType":5126,
			"count":20958,
			"type":"VEC3",
			"min":[-0.999466956,-0.999799907,-0.999997079
			],
			"max":[0.999609947,0.999799907,0.999799311
			]
		}
	],
	"buffers":[
		{
			"uri":"Head_03_data.bin",
			"byteLength":712572,
			"name":"main_buffer"
		}
	],
	"bufferViews":[
		{
			"buffer":0,
			"byteLength":41916,
			"target":34963
		},
		{
			"buffer":0,
			"byteOffset":41916,
			"byteLength":251496,
			"target":34962
		},
		{
			"buffer":0,
			"byteOffset":293412,
			"byteLength":167664,
			"target":34962
		},
		{
			"buffer":0,
			"byteOffset":461076,
			"byteLength":251496,
			"target":34962
		}
	],
	"nodes":[
		{
			"children":[1
			],
			"name":"Root"
		},
		{
			"name":"Head_V3",
			"mesh":0
		}
	],
	"meshes":[
		{
			"primitives":[
				{
					"attributes":{
						"NORMAL":3,
						"TEXCOORD_0":2,
						"POSITION":1
					},
					"indices":0
				}
			]
		}
	],
	"scenes":[
		{
			"nodes":[0
			]
		}
	],
	"scene":0
}
